<svg xmlns="http://www.w3.org/2000/svg" xmlns:xlink="http://www.w3.org/1999/xlink" version="1.1" width="256" height="256" viewBox="0 0 256 256" xml:space="preserve">

<defs>
</defs>
<g style="stroke: none; stroke-width: 0; stroke-dasharray: none; stroke-linecap: butt; stroke-linejoin: miter; stroke-miterlimit: 10; fill: none; fill-rule: nonzero; opacity: 1;" transform="translate(1.4065934065934016 1.4065934065934016) scale(2.81 2.81)" >
	<path d="M 23.474 80.408 c -4.203 0 -8.409 -1.575 -11.645 -4.739 l 0 0 C 1.913 65.976 -2.601 47.033 1.553 32.545 c 0.118 -0.411 0.483 -0.701 0.91 -0.723 c 0.421 -0.023 0.82 0.229 0.979 0.625 c 5.035 12.512 10.839 13.126 17.56 13.837 c 4.65 0.491 9.458 1 14.12 5.558 c 3.182 3.11 4.962 7.274 5.013 11.725 c 0.05 4.45 -1.635 8.653 -4.747 11.836 C 32.131 78.735 27.803 80.408 23.474 80.408 z" style="stroke: none; stroke-width: 1; stroke-dasharray: none; stroke-linecap: butt; stroke-linejoin: miter; stroke-miterlimit: 10; fill: rgb(62,159,207); fill-rule: nonzero; opacity: 1;" transform=" matrix(1 0 0 1 0 0) " stroke-linecap="round" />
	<path d="M 87.485 58.18 c -0.406 0 -0.774 -0.247 -0.928 -0.627 c -5.035 -12.512 -10.84 -13.126 -17.561 -13.837 c -4.649 -0.492 -9.457 -1 -14.119 -5.558 c -6.569 -6.421 -6.689 -16.991 -0.268 -23.561 c 6.422 -6.568 16.99 -6.69 23.561 -0.267 l 0 0 c 9.917 9.694 14.431 28.636 10.275 43.124 c -0.117 0.411 -0.482 0.701 -0.909 0.724 C 87.52 58.18 87.502 58.18 87.485 58.18 z" style="stroke: none; stroke-width: 1; stroke-dasharray: none; stroke-linecap: butt; stroke-linejoin: miter; stroke-miterlimit: 10; fill: rgb(108,216,243); fill-rule: nonzero; opacity: 1;" transform=" matrix(1 0 0 1 0 0) " stroke-linecap="round" />
	<path d="M 44.107 89.988 c -3.991 0 -7.917 -0.496 -11.562 -1.542 c -0.41 -0.117 -0.701 -0.482 -0.723 -0.909 s 0.229 -0.82 0.625 -0.979 c 12.512 -5.035 13.126 -10.84 13.837 -17.561 c 0.491 -4.649 1 -9.457 5.558 -14.119 c 3.11 -3.183 7.274 -4.963 11.725 -5.014 c 4.455 -0.054 8.654 1.636 11.836 4.746 c 6.568 6.422 6.688 16.991 0.267 23.561 l 0 0 C 68.414 85.593 55.978 89.988 44.107 89.988 z" style="stroke: none; stroke-width: 1; stroke-dasharray: none; stroke-linecap: butt; stroke-linejoin: miter; stroke-miterlimit: 10; fill: rgb(36,119,184); fill-rule: nonzero; opacity: 1;" transform=" matrix(1 0 0 1 0 0) " stroke-linecap="round" />
	<path d="M 26.239 40.137 c -4.378 0 -8.505 -1.682 -11.642 -4.748 c -6.569 -6.422 -6.688 -16.991 -0.267 -23.561 c 0 0 0 0 0 0 c 9.694 -9.916 28.637 -14.43 43.124 -10.275 c 0.411 0.118 0.701 0.483 0.724 0.91 c 0.021 0.427 -0.229 0.82 -0.626 0.979 c -12.512 5.035 -13.126 10.84 -13.837 17.561 c -0.492 4.649 -1 9.458 -5.558 14.12 c -3.111 3.182 -7.275 4.962 -11.725 5.013 C 26.369 40.136 26.304 40.137 26.239 40.137 z" style="stroke: none; stroke-width: 1; stroke-dasharray: none; stroke-linecap: butt; stroke-linejoin: miter; stroke-miterlimit: 10; fill: rgb(96,184,211); fill-rule: nonzero; opacity: 1;" transform=" matrix(1 0 0 1 0 0) " stroke-linecap="round" />
</g>
</svg>